<?xml version="1.0" encoding="UTF-8" standalone="no" ?>
<!DOCTYPE svg PUBLIC "-//W3C//DTD SVG 1.1//EN" "http://www.w3.org/Graphics/SVG/1.1/DTD/svg11.dtd">
<svg xmlns="http://www.w3.org/2000/svg" xmlns:xlink="http://www.w3.org/1999/xlink" version="1.1" width="1080" height="1080" viewBox="0 0 1080 1080" xml:space="preserve">
<desc>Created with Fabric.js 5.2.4</desc>
<defs>
</defs>
<g transform="matrix(1 0 0 1 540 540)" id="104e806d-b07f-4e00-a161-4827cbcceaa6"  >
</g>
<g transform="matrix(1 0 0 1 540 540)" id="37669d76-3a20-4526-8442-17803849103c"  >
<rect style="stroke: none; stroke-width: 1; stroke-dasharray: none; stroke-linecap: butt; stroke-dashoffset: 0; stroke-linejoin: miter; stroke-miterlimit: 4; fill: rgb(255,255,255); fill-rule: nonzero; opacity: 1; visibility: hidden;" vector-effect="non-scaling-stroke"  x="-540" y="-540" rx="0" ry="0" width="1080" height="1080" />
</g>
<g transform="matrix(1 0 0 1 542.05 526.37)"  >
<path style="stroke: none; stroke-width: 1; stroke-dasharray: none; stroke-linecap: butt; stroke-dashoffset: 0; stroke-linejoin: miter; stroke-miterlimit: 4; fill: rgb(0,0,0); fill-rule: nonzero; opacity: 1;" vector-effect="non-scaling-stroke"  transform=" translate(-49, -49.12)" d="M 48.601 11.616 C 58.263 11.616 67.962 14.895 75.37299999999999 21.439999999999998 C 90.094 34.442 90.219 55.412 75.651 68.27799999999999 C 72.306 71.23299999999999 68.463 73.47 64.36999999999999 75.05699999999999 C 71.48299999999999 82.228 86.249 86.624 86.249 86.624 C 86.249 86.624 67.579 85.45899999999999 49.318 80.81899999999999 C 37.303 77.76599999999999 29.566999999999997 73.20799999999998 25.662 70.43799999999999 C 25.564 70.368 25.465999999999998 70.30099999999999 25.369 70.22999999999999 C 23.531 68.904 22.618 68.032 22.618 68.032 C 7.898 55.03 7.773 34.061 22.341 21.194 C 29.575 14.805 39.07 11.616 48.601 11.616 M 48.601 4.239 C 36.86 4.239 25.8 8.297 17.457 15.665 C 8.856 23.262 4.119 33.462 4.119 44.388 C 4.119 55.413 8.927 65.745 17.658 73.493 C 18.065 73.869 19.196 74.87299999999999 21.054000000000002 76.214 C 21.122000000000003 76.263 21.219 76.332 21.316000000000003 76.4 L 21.384000000000004 76.44800000000001 C 26.285000000000004 79.924 34.784000000000006 84.738 47.501000000000005 87.96900000000001 C 66.21700000000001 92.724 85 93.93700000000001 85.791 93.986 C 85.946 93.996 86.102 94 86.255 94 C 89.806 94 92.884 91.453 93.51299999999999 87.913 C 94.169 84.22 91.94899999999998 80.62299999999999 88.35399999999998 79.55199999999999 C 86.37899999999999 78.96 82.36799999999998 77.538 78.36799999999998 75.594 C 79.11099999999998 75.021 79.83399999999997 74.42399999999999 80.53399999999998 73.806 C 89.13499999999998 66.209 93.87199999999997 56.009 93.87199999999997 45.083999999999996 C 93.87199999999997 34.025999999999996 89.03599999999997 23.664999999999996 80.25499999999997 15.909999999999997 C 71.735 8.385 60.493 4.239 48.601 4.239 L 48.601 4.239 z M 41.896 59.254 C 43.212 60.655 44.848 61.547999999999995 46.803 61.93 L 46.803 48.612 C 46.589 48.528 46.303 48.432 45.943 48.325 C 45.582 48.220000000000006 45.187999999999995 48.124 44.763999999999996 48.038000000000004 C 43.19199999999999 47.614000000000004 41.641 47.114000000000004 40.113 46.540000000000006 C 38.584 45.967000000000006 37.214 45.202000000000005 36.003 44.24600000000001 C 34.792 43.290000000000006 33.825 42.101000000000006 33.104 40.67800000000001 C 32.381 39.25500000000001 32.021 37.48200000000001 32.021 35.35700000000001 C 32.021 33.19000000000001 32.435 31.279000000000014 33.263 29.622000000000014 C 34.092 27.966000000000015 35.184999999999995 26.575000000000014 36.545 25.449000000000012 C 37.903 24.324000000000012 39.476 23.453000000000014 41.260000000000005 22.83700000000001 C 43.04400000000001 22.221000000000007 44.892 21.84900000000001 46.804 21.722000000000012 L 46.804 16.816000000000013 L 50.563 16.816000000000013 L 50.563 21.722000000000012 C 52.475 21.935000000000013 54.269000000000005 22.34900000000001 55.948 22.96500000000001 C 57.626 23.58100000000001 59.102000000000004 24.43000000000001 60.377 25.513000000000012 C 61.650000000000006 26.59600000000001 62.691 27.946000000000012 63.499 29.55900000000001 C 64.305 31.17400000000001 64.773 33.08500000000001 64.9 35.29400000000001 L 55.852000000000004 35.29400000000001 C 55.809000000000005 33.59500000000001 55.279 32.15000000000001 54.259 30.961000000000013 C 53.239 29.772000000000013 52.007 29.177000000000014 50.563 29.177000000000014 L 50.563 40.45500000000001 C 51.073 40.582000000000015 51.592 40.710000000000015 52.125 40.83700000000001 C 52.655 40.96400000000001 53.218 41.11400000000001 53.813 41.28300000000001 C 56.957 42.13400000000001 59.377 43.18500000000001 61.077000000000005 44.43700000000001 C 62.776 45.69000000000001 64.02900000000001 46.997000000000014 64.837 48.35500000000001 C 65.644 49.71500000000001 66.12100000000001 51.07500000000001 66.271 52.433000000000014 C 66.419 53.79300000000001 66.494 55.00400000000001 66.494 56.06500000000001 C 66.494 57.00100000000001 66.261 58.17900000000001 65.794 59.60200000000001 C 65.325 61.02500000000001 64.487 62.41600000000001 63.275999999999996 63.77500000000001 C 62.065999999999995 65.13500000000002 60.440999999999995 66.34600000000002 58.401999999999994 67.40800000000002 C 56.36299999999999 68.46900000000002 53.75099999999999 69.10600000000001 50.56399999999999 69.31900000000002 L 50.56399999999999 74.73500000000001 L 46.80499999999999 74.73500000000001 L 46.80499999999999 69.31900000000002 C 42.04599999999999 68.97800000000002 38.32999999999999 67.51400000000001 35.653999999999996 64.92300000000002 C 32.977999999999994 62.332000000000015 31.425999999999995 58.530000000000015 31.002999999999997 53.51700000000002 L 39.986999999999995 53.51700000000002 C 39.941 55.94 40.579 57.851 41.896 59.254 z M 44.699 29.496 C 44.019 29.709 43.403 30.038 42.851 30.483999999999998 C 42.298 30.93 41.864 31.482999999999997 41.545 32.141 C 41.226 32.8 41.066 33.574999999999996 41.066 34.467 C 41.066 35.869 41.512 36.952 42.404 37.717 C 43.297000000000004 38.481 44.762 39.098 46.801 39.565 L 46.801 29.178 C 46.079 29.178 45.379 29.285 44.699 29.496 z M 52.951 61.389 C 53.779 61.113 54.522 60.719 55.181 60.209 C 55.839 59.699000000000005 56.379999999999995 59.073 56.806 58.330000000000005 C 57.23 57.587 57.443 56.705000000000005 57.443 55.685 C 57.443 54.028000000000006 56.922 52.786 55.882 51.957 C 54.839999999999996 51.129 53.067 50.375 50.561 49.695 L 50.561 61.93 C 51.326 61.846 52.123 61.665 52.951 61.389 z" stroke-linecap="round" />
</g>
</svg>